<svg width="16" height="16" viewBox="0 0 16 16" fill="none" xmlns="http://www.w3.org/2000/svg">
<g clip-path="url(#clip0_89_11)">
<path d="M15.886 2.3619L8.39921 15.7495C8.24463 16.0259 7.84749 16.0275 7.69061 15.7525L0.0554312 2.36314C-0.115526 2.06344 0.140785 1.70036 0.480458 1.76112L7.97524 3.1007C8.02306 3.10924 8.07202 3.10916 8.1198 3.10045L15.4578 1.76299C15.7964 1.70129 16.0539 2.06157 15.886 2.3619Z" fill="url(#paint0_linear_89_11)"/>
<path d="M11.5455 0.00392891L6.00514 1.08956C5.96087 1.09824 5.92074 1.12137 5.89105 1.15534C5.86137 1.18931 5.84382 1.23217 5.84115 1.27721L5.50036 7.03322C5.49848 7.06479 5.50399 7.09636 5.51645 7.12543C5.52891 7.15449 5.54797 7.18026 5.57213 7.20067C5.59628 7.22108 5.62486 7.23559 5.6556 7.24302C5.68634 7.25046 5.71838 7.25063 5.7492 7.24352L7.29174 6.88754C7.43605 6.85423 7.56647 6.98136 7.53678 7.12648L7.07851 9.37065C7.04769 9.52169 7.18945 9.65081 7.33693 9.60598L8.28971 9.31655C8.43738 9.27173 8.57933 9.40122 8.54808 9.55238L7.8198 13.0774C7.77422 13.2979 8.06752 13.4182 8.18979 13.2291L8.27153 13.1029L12.7861 4.09308C12.8618 3.94223 12.7314 3.77022 12.5658 3.80222L10.9779 4.10864C10.8287 4.13741 10.7018 3.99845 10.7439 3.85252L11.7802 0.259991C11.8223 0.113688 11.6948 -0.0253318 11.5455 0.00392891Z" fill="url(#paint1_linear_89_11)"/>
</g>
<defs>
<linearGradient id="paint0_linear_89_11" x1="3.14301e-07" y1="-1.14882e-06" x2="16" y2="16" gradientUnits="userSpaceOnUse">
<stop offset="0.3" stop-color="#CB8CFF"/>
<stop offset="0.49" stop-color="#4AC6FF"/>
<stop offset="0.83184" stop-color="#00FF3C"/>
</linearGradient>
<linearGradient id="paint1_linear_89_11" x1="6" y1="1" x2="12.9912" y2="3.55813" gradientUnits="userSpaceOnUse">
<stop offset="0.33" stop-color="#FFC400"/>
<stop offset="0.74" stop-color="#FF66BD"/>
<stop offset="1" stop-color="#CB8CFF"/>
</linearGradient>
<clipPath id="clip0_89_11">
<rect width="16" height="16" fill="white"/>
</clipPath>
</defs>
</svg>
