<svg width="48" height="48" viewBox="0 0 48 48" fill="none" xmlns="http://www.w3.org/2000/svg">
<path fill-rule="evenodd" clip-rule="evenodd" d="M23.9999 4.07129C34.9999 4.07129 43.9284 12.9999 43.9284 23.9999C43.9284 34.9999 34.9999 43.9284 23.9999 43.9284C12.9999 43.9284 4.07129 34.9999 4.07129 23.9999C4.07129 12.9999 12.9999 4.07129 23.9999 4.07129Z" fill="#FEFEFE"/>
<path fill-rule="evenodd" clip-rule="evenodd" d="M32.9294 15.857L41.358 26.6427C41.5723 34.9284 30.7151 44.6427 20.5008 40.7856L15.0723 33.7141L23.2151 22.5713C23.2151 22.5713 33.0723 15.7856 32.9294 15.857Z" fill="#332C2B" fill-opacity="0.14902"/>
<path fill-rule="evenodd" clip-rule="evenodd" d="M15.5001 14.0713H30.3573L33.0716 15.7856V33.357C33.0716 33.7141 32.8573 33.9284 32.5001 33.9284H15.5001C15.143 33.9284 14.9287 33.7141 14.9287 33.357V14.6427C14.9287 14.2856 15.143 14.0713 15.5001 14.0713Z" fill="#2BBCFF"/>
<path fill-rule="evenodd" clip-rule="evenodd" d="M15.5001 14.0713H30.3573L33.0716 15.7856V15.9284L30.4287 14.2856H15.5001C15.2144 14.2856 15.0001 14.4999 15.0001 14.7856V33.5713C14.9287 33.4999 14.9287 33.4284 14.9287 33.357V14.6427C14.9287 14.2856 15.143 14.0713 15.5001 14.0713Z" fill="#53C6FC"/>
<path fill-rule="evenodd" clip-rule="evenodd" d="M20.7861 14.1426H28.8576V21.1426H20.7861V14.1426Z" fill="#BDEAFF"/>
<path fill-rule="evenodd" clip-rule="evenodd" d="M17.2146 24.9287H30.7146C30.9288 24.9287 31.0717 25.0716 31.0717 25.2144V33.5001H16.8574V25.2144C16.8574 25.0716 17.0003 24.9287 17.2146 24.9287Z" fill="#BDEAFF"/>
<path fill-rule="evenodd" clip-rule="evenodd" d="M16.8574 32.5713H31.0717V33.4999H16.8574V32.5713Z" fill="#006498"/>
<path fill-rule="evenodd" clip-rule="evenodd" d="M26.1429 15.1431H26.8572C27.0715 15.1431 27.2858 15.2859 27.2858 15.5002V18.3574C27.2858 18.5716 27.0715 18.7859 26.8572 18.7859H26.1429C25.9286 18.7859 25.7144 18.5716 25.7144 18.3574V15.5002C25.7144 15.2859 25.9286 15.1431 26.1429 15.1431Z" fill="#006498"/>
<path fill-rule="evenodd" clip-rule="evenodd" d="M17.143 15.1431C17.8573 15.1431 18.3573 15.6431 18.3573 16.3574C18.3573 17.0002 17.8573 17.5002 17.143 17.5002C16.5001 17.5002 15.9287 17.0002 15.9287 16.3574C15.9287 15.6431 16.5001 15.1431 17.143 15.1431Z" fill="#FEFEFE"/>
<path fill-rule="evenodd" clip-rule="evenodd" d="M18.0717 31H29.8574C30.0003 31 30.0717 31.0714 30.0717 31.2143C30.0717 31.2857 30.0003 31.4286 29.8574 31.4286H18.0717C17.9289 31.4286 17.8574 31.2857 17.8574 31.2143C17.8574 31.0714 17.9289 31 18.0717 31Z" fill="#006498"/>
<path fill-rule="evenodd" clip-rule="evenodd" d="M18.0717 28.6426H29.8574C30.0003 28.6426 30.0717 28.714 30.0717 28.8569C30.0717 28.9283 30.0003 28.9997 29.8574 28.9997H18.0717C17.9289 28.9997 17.8574 28.9283 17.8574 28.8569C17.8574 28.714 17.9289 28.6426 18.0717 28.6426Z" fill="#006498"/>
<path fill-rule="evenodd" clip-rule="evenodd" d="M18.0717 26.2144H29.8574C30.0003 26.2144 30.0717 26.3572 30.0717 26.4286C30.0717 26.5715 30.0003 26.6429 29.8574 26.6429H18.0717C17.9289 26.6429 17.8574 26.5715 17.8574 26.4286C17.8574 26.3572 17.9289 26.2144 18.0717 26.2144Z" fill="#006498"/>
<path fill-rule="evenodd" clip-rule="evenodd" d="M15.8571 32.7144C16.0714 32.7144 16.2143 32.8572 16.2143 33.0715C16.2143 33.2144 16.0714 33.3572 15.8571 33.3572C15.6429 33.3572 15.5 33.2144 15.5 33.0715C15.5 32.8572 15.6429 32.7144 15.8571 32.7144Z" fill="#FEFEFE"/>
<path fill-rule="evenodd" clip-rule="evenodd" d="M32.071 32.7144C32.2853 32.7144 32.4282 32.8572 32.4282 33.0715C32.4282 33.2144 32.2853 33.3572 32.071 33.3572C31.8567 33.3572 31.7139 33.2144 31.7139 33.0715C31.7139 32.8572 31.8567 32.7144 32.071 32.7144Z" fill="#FEFEFE"/>
<path fill-rule="evenodd" clip-rule="evenodd" d="M20.7856 14.1426H19.2856V21.1426H20.7856V14.1426Z" fill="#006498"/>
<path fill-rule="evenodd" clip-rule="evenodd" d="M33.0716 33.2144V33.3572C33.0716 33.7144 32.8573 33.9286 32.5001 33.9286H15.5001C15.143 33.9286 14.9287 33.7144 14.9287 33.3572V33.2144C14.9287 33.5001 15.143 33.7858 15.5001 33.7858H32.5001C32.8573 33.7858 33.0716 33.5001 33.0716 33.2144Z" fill="#0EA5EB"/>
<path fill-rule="evenodd" clip-rule="evenodd" d="M24 4C35.0714 4 44 12.9286 44 24C44 35.0714 35.0714 44 24 44C12.9286 44 4 35.0714 4 24C4 12.9286 12.9286 4 24 4ZM24 7.28571C33.2143 7.28571 40.7143 14.7857 40.7143 24C40.7143 33.2143 33.2143 40.7143 24 40.7143C14.7857 40.7143 7.28571 33.2143 7.28571 24C7.28571 14.7857 14.7857 7.28571 24 7.28571Z" fill="#2979FF"/>
</svg>
