<svg width="48" height="48" viewBox="0 0 48 48" fill="none" xmlns="http://www.w3.org/2000/svg">
<g clip-path="url(#clip0_195_350)">
<path fill-rule="evenodd" clip-rule="evenodd" d="M6.79243 34.0715V33.9289L6.64941 33.8574V34.0004L6.79243 34.0715Z" fill="#FAA42F"/>
<path fill-rule="evenodd" clip-rule="evenodd" d="M6.64941 29.0242L6.79243 28.9288V26.4525L6.64941 26.3818V29.0242Z" fill="#DDB02A"/>
<path fill-rule="evenodd" clip-rule="evenodd" d="M6.64941 33.857L6.79243 33.9285L8.50942 32.9283V29.9285L6.79243 28.9282L6.64941 29.0236V33.857Z" fill="#C47728"/>
<path fill-rule="evenodd" clip-rule="evenodd" d="M10.9658 36.4998L11.1088 36.4053L13.2553 37.6668V37.8103L10.9658 36.4998Z" fill="#F15933"/>
<path fill-rule="evenodd" clip-rule="evenodd" d="M10.9667 36.4998L11.1097 36.4053V34.4291L8.50997 32.9287L6.79297 33.9289V34.0715L10.9667 36.4998Z" fill="#F37132"/>
<path fill-rule="evenodd" clip-rule="evenodd" d="M6.64941 21.5479L6.79243 21.4764V18.9762L6.64941 18.9043V21.5479Z" fill="#D6E042"/>
<path fill-rule="evenodd" clip-rule="evenodd" d="M6.64941 26.3814L6.792 26.452L8.29448 25.5952C8.22675 25.0662 8.19504 24.5332 8.19956 23.9999C8.19956 23.4517 8.24723 22.8801 8.29448 22.3332L6.792 21.4751L6.64941 21.5466V26.3814Z" fill="#FCEA3B"/>
<path fill-rule="evenodd" clip-rule="evenodd" d="M6.79199 28.952L8.50942 29.9284L11.1092 28.4519V26.4514L9.84462 25.7142C9.86888 26.0717 9.94039 26.4284 10.0119 26.7855L8.62859 27.5942C8.4595 26.9383 8.3477 26.269 8.29447 25.5938L6.79199 26.4505V28.952Z" fill="#FAA42F"/>
<path fill-rule="evenodd" clip-rule="evenodd" d="M11.1094 36.4053V34.4291L11.8006 34.0244L11.7772 34.0009C12.1109 34.4053 12.4684 34.7858 12.8264 35.1433C13.4259 35.7409 14.0717 36.2902 14.7579 36.7858L13.2554 37.6669L11.1094 36.4053ZM13.6849 32.9292L15.4257 33.929V35.3813C14.8876 34.9894 14.3849 34.5511 13.9232 34.0716C13.6426 33.8118 13.3797 33.5335 13.1362 33.2386L13.6849 32.9292Z" fill="#F15933"/>
<path fill-rule="evenodd" clip-rule="evenodd" d="M19.7436 41.5481V41.3813L17.5733 40.1436L17.4541 40.2151L19.7436 41.5481Z" fill="#E22574"/>
<path fill-rule="evenodd" clip-rule="evenodd" d="M17.4539 40.2147L17.573 40.1432V38.4045C16.5793 37.9683 15.6356 37.426 14.7583 36.7871L13.2559 37.6682V37.8116L17.4539 40.2147Z" fill="#EF3839"/>
<path fill-rule="evenodd" clip-rule="evenodd" d="M6.64941 14.0713L6.79243 13.9998V13.9287L6.64941 13.9998V14.0713Z" fill="#BBD64B"/>
<path fill-rule="evenodd" clip-rule="evenodd" d="M6.64941 18.9046L6.79243 18.9765L8.93889 17.7383V15.2386L6.79243 14L6.64941 14.0715V18.9046Z" fill="#D6E042"/>
<path fill-rule="evenodd" clip-rule="evenodd" d="M6.79199 21.4754L8.29447 22.3322C8.45953 20.8446 8.82891 19.3868 9.39217 18.0001L8.93888 17.7388L6.79199 18.9765V21.4754ZM9.84462 22.1896L11.1092 21.4754V18.9765L10.7261 18.7616C10.2875 19.8626 9.99084 21.0149 9.84334 22.1909L9.84462 22.1896Z" fill="#FFCF29"/>
<path fill-rule="evenodd" clip-rule="evenodd" d="M9.84434 25.7144L11.1089 26.452L13.2549 25.2143V22.7141L11.1089 21.4751L9.84434 22.1893C9.76859 22.7895 9.72894 23.3937 9.72559 23.9987C9.72893 24.5721 9.76859 25.1447 9.84434 25.7131V25.7144Z" fill="#FAA42F"/>
<path fill-rule="evenodd" clip-rule="evenodd" d="M13.6855 29.9284L15.188 29.0708L17.5733 30.452V32.6661L15.4268 33.9285L13.6855 32.9283V29.9284Z" fill="#F15933"/>
<path fill-rule="evenodd" clip-rule="evenodd" d="M17.5723 40.1436L19.743 41.3813L21.9137 40.1436V39.6435C20.387 39.4307 18.9322 39.0246 17.5723 38.4049V40.1436ZM21.9137 38.0955V37.6668L19.743 36.4053L18.4784 37.1433C19.5765 37.6104 20.7314 37.9305 21.9133 38.0955H21.9137Z" fill="#EE438D"/>
<path fill-rule="evenodd" clip-rule="evenodd" d="M13.6849 29.9286L15.1874 29.071V26.3095L13.2558 25.2144L11.1094 26.4521V28.4521L13.6849 29.9286Z" fill="#F37132"/>
<path fill-rule="evenodd" clip-rule="evenodd" d="M23.9169 43.953L24.0603 43.8815V41.3813L21.9135 40.1436L19.7432 41.3813V41.5481L23.9169 43.953Z" fill="#CC3192"/>
<path fill-rule="evenodd" clip-rule="evenodd" d="M18.4788 37.1428L19.7434 36.4048V33.9284L17.5727 32.666L15.4258 33.9284V35.3807C16.3615 36.0996 17.3879 36.6921 18.4784 37.1428H18.4788Z" fill="#BD2025"/>
<path fill-rule="evenodd" clip-rule="evenodd" d="M24.1311 43.929L24.0604 43.8813L23.917 43.9529L24.0123 44.0001L24.1311 43.929Z" fill="#9B3995"/>
<path fill-rule="evenodd" clip-rule="evenodd" d="M6.79297 13.9996L8.93943 15.2382L11.1097 13.9996V11.4994L11.0382 11.4756L6.79297 13.9285V13.9996Z" fill="#F1EB59"/>
<path fill-rule="evenodd" clip-rule="evenodd" d="M8.93945 17.7387L9.39275 18.0001C9.94096 16.6423 10.6803 15.4037 11.5635 14.2622L11.1102 14L8.93945 15.2386V17.7387ZM10.7271 18.7603L11.1102 18.9752L13.2562 17.7375V15.2386L12.8987 15.0479C11.9973 16.1729 11.266 17.4241 10.728 18.7615L10.7271 18.7603Z" fill="#FCEA3B"/>
<path fill-rule="evenodd" clip-rule="evenodd" d="M11.1094 21.4766L13.2558 22.7143L15.1874 21.5954V18.9292L15.2593 18.8811L13.2558 17.7383L11.1094 18.9764V21.4766Z" fill="#FAA42F"/>
<path fill-rule="evenodd" clip-rule="evenodd" d="M19.7432 36.4049L21.9135 37.6665L24.0603 36.4049V34.1192L24.0122 34.1426L21.6751 32.8096L19.7432 33.9286V36.4049Z" fill="#E22574"/>
<path fill-rule="evenodd" clip-rule="evenodd" d="M13.2559 25.2144L15.1874 26.3095V21.5952L13.2559 22.7142V25.2144Z" fill="#F7975F"/>
<path fill-rule="evenodd" clip-rule="evenodd" d="M21.9135 40.1436L24.06 41.3813L26.2307 40.1436V39.6196C25.495 39.7146 24.7541 39.7622 24.0123 39.7622C23.3112 39.7597 22.6108 39.72 21.9139 39.6435L21.9135 40.1436ZM26.2303 38.0716V37.6668L24.0595 36.4053L21.9131 37.6668V38.0955C22.6084 38.1919 23.3095 38.2397 24.0114 38.2385C24.7542 38.242 25.496 38.1862 26.2298 38.0716H26.2303Z" fill="#CC3192"/>
<path fill-rule="evenodd" clip-rule="evenodd" d="M17.5723 32.6663L19.7426 33.9287L21.6745 32.8097L17.5723 30.4521V32.6663Z" fill="#D31F26"/>
<path fill-rule="evenodd" clip-rule="evenodd" d="M24.0605 43.8815L24.1312 43.9291L28.3765 41.4766V41.3813L26.2308 40.1436L24.0605 41.3813V43.8815Z" fill="#73206A"/>
<path fill-rule="evenodd" clip-rule="evenodd" d="M11.0381 11.4763L11.1096 11.5001L13.2561 10.2624V10.1904L11.0381 11.4763Z" fill="#D6E042"/>
<path fill-rule="evenodd" clip-rule="evenodd" d="M11.1098 13.9997L11.5631 14.2619C11.9679 13.7617 12.3978 13.3097 12.8268 12.8573C13.4443 12.2366 14.1146 11.671 14.8302 11.1667L13.2554 10.2622L11.1094 11.4999L11.1098 13.9997ZM12.8975 15.0476L13.255 15.2383L15.4257 13.9997V12.6194C14.8872 13.0106 14.3845 13.4487 13.9232 13.9286C13.5657 14.2853 13.232 14.642 12.8979 15.0476H12.8975Z" fill="#FFCF29"/>
<path fill-rule="evenodd" clip-rule="evenodd" d="M13.2559 17.7383L15.2593 18.8811L17.5726 17.5481V15.2386L15.4262 14L13.2559 15.2386V17.7383Z" fill="#FAA42F"/>
<path fill-rule="evenodd" clip-rule="evenodd" d="M30.6182 40.1904L30.5463 40.1436L28.376 41.3813V41.4766L30.6182 40.1904Z" fill="#853A96"/>
<path fill-rule="evenodd" clip-rule="evenodd" d="M24.0605 36.4046L26.2308 37.6662L28.3765 36.4046V33.9283L26.3977 32.7612L24.0605 34.119V36.4046Z" fill="#CC3192"/>
<path fill-rule="evenodd" clip-rule="evenodd" d="M26.2295 40.1436L28.3755 41.3813L30.5462 40.1436V38.3559C29.1748 38.9804 27.7212 39.4059 26.2295 39.6196V40.1436ZM29.592 37.1195L28.3755 36.4053L26.2295 37.6668V38.0716C27.3983 37.8809 28.5424 37.5715 29.592 37.1195Z" fill="#9B3995"/>
<path fill-rule="evenodd" clip-rule="evenodd" d="M13.2559 10.2618L14.8307 11.1663C15.6896 10.5513 16.6085 10.0248 17.5735 9.59482V7.76163L17.5254 7.73779L13.2563 10.1899L13.2559 10.2618Z" fill="#FFCF29"/>
<path fill-rule="evenodd" clip-rule="evenodd" d="M15.4264 13.9999L17.5733 15.2385L19.744 13.9999V11.4997L18.5735 10.8345C17.4286 11.2873 16.3794 11.9062 15.4238 12.6221L15.4264 13.9999Z" fill="#D98A26"/>
<path fill-rule="evenodd" clip-rule="evenodd" d="M30.5468 40.1434L30.6183 40.1907L34.8635 37.7386V37.6667L33.2887 36.7622C32.4277 37.3807 31.5092 37.915 30.5459 38.3575L30.5468 40.1434Z" fill="#8F4F9F"/>
<path fill-rule="evenodd" clip-rule="evenodd" d="M21.746 15.1424L19.7426 14L17.5723 15.2386V17.5481L21.746 15.1424Z" fill="#F37132"/>
<path fill-rule="evenodd" clip-rule="evenodd" d="M26.3975 32.7618L28.3762 33.9289L30.5465 32.6665V30.3809L26.3975 32.7618Z" fill="#D24B9B"/>
<path fill-rule="evenodd" clip-rule="evenodd" d="M28.3764 36.4048L29.5929 37.119C30.7038 36.6494 31.7465 36.0327 32.6932 35.2854V33.9284L30.5467 32.666L28.376 33.9284L28.3764 36.4048Z" fill="#B263A7"/>
<path fill-rule="evenodd" clip-rule="evenodd" d="M17.5244 7.73798L17.5725 7.76182L19.7428 6.5228V6.45215L17.5244 7.73798Z" fill="#FFCF29"/>
<path fill-rule="evenodd" clip-rule="evenodd" d="M18.5729 10.8347L19.7417 11.5016L21.4821 10.5252V9.97616L21.5779 9.95275C20.5466 10.1342 19.5387 10.43 18.5729 10.8347ZM21.4821 7.52495L19.743 6.52344L17.5723 7.76203V9.59522C18.8225 9.0461 20.1362 8.65436 21.483 8.42899L21.4821 7.52495Z" fill="#FAA42F"/>
<path fill-rule="evenodd" clip-rule="evenodd" d="M33.2897 36.7624L34.8645 37.6669L37.0352 36.4053V34.4291L34.4346 32.9292L32.6934 33.929V35.2859C32.9802 35.0952 33.2182 34.8811 33.4812 34.6666L34.8637 35.4528C34.3667 35.9219 33.8407 36.3593 33.2888 36.7624H33.2897Z" fill="#6B297A"/>
<path fill-rule="evenodd" clip-rule="evenodd" d="M37.1051 36.4525L37.0336 36.4053L34.8633 37.6668V37.7383L37.1051 36.4525Z" fill="#782A8F"/>
<path fill-rule="evenodd" clip-rule="evenodd" d="M19.7432 14L21.7466 15.1424L24.0122 13.8574L24.0603 13.8808V11.9995L21.484 10.5234L19.7432 11.4998V14Z" fill="#F37132"/>
<path fill-rule="evenodd" clip-rule="evenodd" d="M30.5459 32.6665L32.6928 33.9289L34.4336 32.9286V29.9288L32.8124 29.0005V29.0711L30.5459 30.3808V32.6665Z" fill="#9B3995"/>
<path fill-rule="evenodd" clip-rule="evenodd" d="M19.7432 6.52272L21.484 7.52295L24.0603 6.02303V4.04725L24.0122 4L19.7432 6.45206V6.52272Z" fill="#FAA42F"/>
<path fill-rule="evenodd" clip-rule="evenodd" d="M24.0605 13.8808V11.9995L26.6599 10.5234L28.3765 11.4998V14L26.3258 15.1905L24.0605 13.8808Z" fill="#F15933"/>
<path fill-rule="evenodd" clip-rule="evenodd" d="M37.0342 36.4053L37.1057 36.4525L41.3509 34.0005V33.9289L39.6097 32.9287L37.0342 34.4291V36.4053Z" fill="#782A8F"/>
<path fill-rule="evenodd" clip-rule="evenodd" d="M32.8125 26.3812L34.8632 25.2141V22.7139L32.8125 21.5234V26.3812Z" fill="#A01664"/>
<path fill-rule="evenodd" clip-rule="evenodd" d="M30.5462 17.6187V15.2386L28.3759 14L26.3252 15.1905L30.5462 17.6187Z" fill="#C02026"/>
<path fill-rule="evenodd" clip-rule="evenodd" d="M32.8125 29.0003L34.4337 29.9286L37.0335 28.4521V26.4521L34.8632 25.2144L32.8125 26.3814V29.0003Z" fill="#9B3995"/>
<path fill-rule="evenodd" clip-rule="evenodd" d="M26.6602 7.52325L28.3767 6.52344L30.5474 7.76203V9.64289C29.8989 9.34742 29.2292 9.10058 28.544 8.90442V10.5005C28.8778 10.5979 29.2048 10.7171 29.523 10.8572L28.378 11.4999L26.6602 10.5235V7.52325Z" fill="#F15933"/>
<path fill-rule="evenodd" clip-rule="evenodd" d="M37.4627 28.76C37.8045 27.7973 38.0367 26.7991 38.1547 25.7844L37.0332 26.4505V28.451L37.4869 28.7132L37.4627 28.76ZM39.6091 29.9271L41.3504 28.9268V26.4522L39.7266 25.5239C39.59 26.892 39.2774 28.2368 38.7966 29.5249L38.8213 29.4768L39.6091 29.9271Z" fill="#9051A0"/>
<path fill-rule="evenodd" clip-rule="evenodd" d="M32.7881 18.9292L34.8631 17.7383V15.2386L32.6928 14L30.5459 15.2386V17.6187L32.7881 18.9292Z" fill="#B01B4A"/>
<path fill-rule="evenodd" clip-rule="evenodd" d="M26.6599 7.52307L28.3765 6.52284L24.0605 4.04736V6.02314L26.6599 7.52307Z" fill="#C54627"/>
<path fill-rule="evenodd" clip-rule="evenodd" d="M32.8133 21.5238L34.864 22.7143L37.0343 21.4766V18.9764L34.864 17.7383L32.7891 18.9292H32.8133V21.5238Z" fill="#A41768"/>
<path fill-rule="evenodd" clip-rule="evenodd" d="M28.376 13.9998L30.5467 15.2384L32.6932 13.9998V12.714C31.7278 11.9499 30.6601 11.3248 29.5213 10.8569L28.3764 11.4996L28.376 13.9998Z" fill="#EF3839"/>
<path fill-rule="evenodd" clip-rule="evenodd" d="M34.8627 25.2143L37.0335 26.452L38.155 25.7859C38.2314 25.193 38.271 24.596 38.2737 23.9982C38.2701 23.3694 38.2304 22.7413 38.155 22.1169L37.033 21.4751L34.8623 22.7128L34.8627 25.2143Z" fill="#9B3995"/>
<path fill-rule="evenodd" clip-rule="evenodd" d="M39.7265 25.5237L41.349 26.452V21.4751L39.7031 22.4034C39.7712 22.9324 39.8031 23.4654 39.7985 23.9987C39.7985 24.5222 39.7746 25.0223 39.7265 25.5224V25.5237Z" fill="#6B297A"/>
<path fill-rule="evenodd" clip-rule="evenodd" d="M32.6934 13.9996L34.8641 15.2382L35.1263 15.0948C34.8103 14.684 34.4678 14.2945 34.1009 13.9285C33.6545 13.4981 33.1847 13.0926 32.6938 12.7138L32.6934 13.9996ZM36.4615 14.3099L37.0339 13.9996V11.4995L34.8632 10.2617L33.242 11.2134C33.929 11.7081 34.5749 12.2577 35.1731 12.8568C35.6269 13.3187 36.0567 13.8037 36.4606 14.3099H36.4615Z" fill="#E22574"/>
<path fill-rule="evenodd" clip-rule="evenodd" d="M34.8633 17.7387L37.034 18.9765L37.2962 18.833C36.7771 17.479 36.0443 16.217 35.1255 15.0952L34.8633 15.2386V17.7387ZM38.6314 18.0482L39.1805 17.7387V15.2386L37.0336 14L36.4611 14.3103C37.3483 15.4538 38.0784 16.7109 38.6318 18.0482H38.6314Z" fill="#CC3192"/>
<path fill-rule="evenodd" clip-rule="evenodd" d="M33.2414 11.2136L34.8627 10.2619L30.5459 7.76172V9.64258C31.4955 10.0732 32.3987 10.5996 33.2414 11.2136Z" fill="#EF3839"/>
<path fill-rule="evenodd" clip-rule="evenodd" d="M37.0332 21.4754L38.1547 22.1177C37.9954 20.993 37.7071 19.8904 37.2954 18.8318L37.0332 18.9752V21.4754ZM39.7045 22.4037L41.3504 21.4754V18.9765L39.1797 17.7388L38.6306 18.0482C39.1797 19.4294 39.5606 20.8812 39.704 22.405L39.7045 22.4037Z" fill="#B263A7"/>
<path fill-rule="evenodd" clip-rule="evenodd" d="M37.0342 13.9997L39.1806 15.2383L41.3509 13.9997L37.0342 11.4995V13.9997Z" fill="#D1499A"/>
<path fill-rule="evenodd" clip-rule="evenodd" d="M39.1807 17.7383L41.351 18.9765V14L39.1807 15.2386V17.7383Z" fill="#9B3995"/>
<path fill-rule="evenodd" clip-rule="evenodd" d="M39.6094 32.9283L41.3506 33.9285V28.9521V28.9282L39.6094 29.9285V32.9283Z" fill="#85459A"/>
<path fill-rule="evenodd" clip-rule="evenodd" d="M19.5283 26.333L19.7428 26.4518V26.6905L19.5283 26.5705V26.333Z" fill="#F15933"/>
<path fill-rule="evenodd" clip-rule="evenodd" d="M19.5283 21.5953L19.7428 21.4766L21.9131 22.7143V25.2145L19.7428 26.4522L19.5283 26.3334V21.5953Z" fill="#F15933"/>
<path fill-rule="evenodd" clip-rule="evenodd" d="M24.2275 29.0236L24.0606 28.9282L23.8457 29.0708L24.0126 29.1662L24.2275 29.0236Z" fill="#E22574"/>
<path fill-rule="evenodd" clip-rule="evenodd" d="M23.8454 29.071L24.0603 28.9284V26.4521L21.9135 25.2144L19.7432 26.4521V26.6909L23.8454 29.071Z" fill="#EF3839"/>
<path fill-rule="evenodd" clip-rule="evenodd" d="M24.0605 28.9284L24.2274 29.0238L28.3765 26.6189V26.4521L26.2308 25.2144L24.0605 26.4521V28.9284Z" fill="#EE3F8A"/>
<path fill-rule="evenodd" clip-rule="evenodd" d="M21.9131 25.2145L24.06 26.4522L26.2303 25.2145V22.7143L24.06 21.4766L21.9131 22.7143V25.2145Z" fill="#EF3839"/>
<path fill-rule="evenodd" clip-rule="evenodd" d="M26.2305 25.2145L28.3761 26.4522L28.4723 26.405V21.5238L28.3761 21.4766L26.2305 22.7143V25.2145Z" fill="#E22574"/>
<path fill-rule="evenodd" clip-rule="evenodd" d="M28.4722 26.4048L28.376 26.452V26.6189L28.4722 26.5708V26.4048Z" fill="#CC3192"/>
<path fill-rule="evenodd" clip-rule="evenodd" d="M19.5283 21.5951L19.7428 21.4764V21.3091L19.5283 21.4283V21.5951Z" fill="#F37132"/>
<path fill-rule="evenodd" clip-rule="evenodd" d="M19.7432 21.4764V21.3091L23.9169 18.9043L24.0603 18.9762V21.4764L21.9135 22.7141L19.7432 21.4764Z" fill="#F15933"/>
<path fill-rule="evenodd" clip-rule="evenodd" d="M24.1558 18.9294L24.0604 18.9766L23.917 18.9047L24.0123 18.8574L24.1558 18.9294Z" fill="#F4805F"/>
<path fill-rule="evenodd" clip-rule="evenodd" d="M24.0605 21.4766L26.2308 22.7143L28.3765 21.4766V21.3813L24.1559 18.9292L24.0605 18.9764V21.4766Z" fill="#EF3839"/>
<path fill-rule="evenodd" clip-rule="evenodd" d="M28.376 21.4767L28.4722 21.5239V21.4286L28.376 21.3813V21.4767Z" fill="#E22574"/>
<path fill-rule="evenodd" clip-rule="evenodd" d="M22.5811 9.88038L24.0601 10.738L25.5379 9.88038V8.16637L24.0601 7.30957L22.5811 8.16637V9.88038Z" fill="#F37132"/>
<path fill-rule="evenodd" clip-rule="evenodd" d="M35.5312 32.2852L37.0342 33.1428L38.5128 32.2852V30.5707L37.0342 29.7144L35.5312 30.5707V32.2852Z" fill="#552263"/>
<path fill-rule="evenodd" clip-rule="evenodd" d="M9.63086 32.2852L11.1095 33.1428L12.5881 32.2852V30.5707L11.1095 29.7144L9.63086 30.5707V32.2852Z" fill="#F37132"/>
</g>
<defs>
<clipPath id="clip0_195_350">
<rect width="34.7009" height="40" fill="white" transform="translate(6.64941 4)"/>
</clipPath>
</defs>
</svg>
