<svg width="48" height="48" viewBox="0 0 48 48" fill="none" xmlns="http://www.w3.org/2000/svg">
<g clip-path="url(#clip0_195_360)">
<path d="M44 41.4603C44 42.8353 42.875 43.9603 41.5 43.9603H6.5C5.125 43.9603 4 42.8353 4 41.4603V26.4603C4 25.0853 4.795 23.1655 5.76833 22.1922L22.2317 5.72875C23.2033 4.75708 24.795 4.75708 25.7667 5.72875L42.2317 22.1937C43.2033 23.1653 44 25.087 44 26.462V41.462V41.4603Z" fill="#F2F4F9"/>
<path d="M42.2317 22.1922L25.7683 5.72875C24.7967 4.75708 23.205 4.75708 22.2333 5.72875L5.76833 22.1922C4.79667 23.1638 4 25.0853 4 26.4603V41.4603C4 42.8353 5.125 43.9603 6.5 43.9603H21.8783L15.1067 37.1887C14.7583 37.3087 14.3867 37.377 14 37.377C12.1167 37.377 10.5833 35.8437 10.5833 33.9603C10.5833 32.077 12.1167 30.5437 14 30.5437C15.8833 30.5437 17.4167 32.077 17.4167 33.9603C17.4167 34.3487 17.3483 34.7203 17.2283 35.0687L22.5 40.3403V21.027C21.3667 20.4704 20.5833 19.3071 20.5833 17.9621C20.5833 16.0787 22.1167 14.5454 24 14.5454C25.8833 14.5454 27.4167 16.0787 27.4167 17.9621C27.4167 19.3071 26.6333 20.4704 25.5 21.027V34.572L30.7433 29.3287C30.64 29.002 30.5833 28.6553 30.5833 28.2953C30.5833 26.412 32.1167 24.8787 34 24.8787C35.8833 24.8787 37.4167 26.412 37.4167 28.2953C37.4167 30.1787 35.8833 31.712 34 31.712C33.5833 31.712 33.1867 31.6337 32.8183 31.497L25.5 38.8153V43.962H41.5C42.875 43.962 44 42.837 44 41.462V26.462C44 25.087 43.205 23.167 42.2317 22.1937V22.1922Z" fill="#18BCF2"/>
</g>
<defs>
<clipPath id="clip0_195_360">
<rect width="40" height="40" fill="white" transform="translate(4 4)"/>
</clipPath>
</defs>
</svg>
